<?xml version="1.0" encoding="UTF-8" standalone="no"?>
<svg
   width="32"
   height="32"
   viewBox="0 0 8.4666665 8.4666669"
   version="1.1"
   id="svg20249"
   inkscape:version="1.1 (c4e8f9ed74, 2021-05-24)"
   sodipodi:docname="thefrisbee-blueprint.svg"
   xmlns:inkscape="http://www.inkscape.org/namespaces/inkscape"
   xmlns:sodipodi="http://sodipodi.sourceforge.net/DTD/sodipodi-0.dtd"
   xmlns:xlink="http://www.w3.org/1999/xlink"
   xmlns="http://www.w3.org/2000/svg"
   xmlns:svg="http://www.w3.org/2000/svg"
   xmlns:rdf="http://www.w3.org/1999/02/22-rdf-syntax-ns#"
   xmlns:cc="http://creativecommons.org/ns#"
   xmlns:dc="http://purl.org/dc/elements/1.1/">
  <defs
     id="defs20243">
    <linearGradient
       inkscape:collect="always"
       xlink:href="#linearGradient9209"
       id="linearGradient22086-8-4-1"
       gradientUnits="userSpaceOnUse"
       x1="171.45"
       y1="249.37498"
       x2="179.91667"
       y2="240.90831"
       gradientTransform="translate(-171.44903,47.625597)" />
    <linearGradient
       id="linearGradient9209"
       inkscape:collect="always">
      <stop
         id="stop9205"
         offset="0"
         style="stop-color:#0064d9;stop-opacity:1" />
      <stop
         id="stop9207"
         offset="1"
         style="stop-color:#22c8ff;stop-opacity:1" />
    </linearGradient>
  </defs>
  <sodipodi:namedview
     id="base"
     pagecolor="#ffffff"
     bordercolor="#666666"
     borderopacity="1.0"
     inkscape:pageopacity="0.0"
     inkscape:pageshadow="2"
     inkscape:zoom="15.839192"
     inkscape:cx="8.049653"
     inkscape:cy="21.37104"
     inkscape:document-units="mm"
     inkscape:current-layer="layer1"
     showgrid="true"
     units="px"
     inkscape:window-width="2560"
     inkscape:window-height="1404"
     inkscape:window-x="3840"
     inkscape:window-y="725"
     inkscape:window-maximized="1"
     inkscape:document-rotation="0"
     inkscape:pagecheckerboard="0">
    <inkscape:grid
       type="xygrid"
       id="grid20794"
       empspacing="4" />
    <inkscape:grid
       type="xygrid"
       id="grid20796"
       empspacing="1"
       originy="0.13229167"
       originx="0.13229167"
       dotted="true" />
  </sodipodi:namedview>
  <metadata
     id="metadata20246">
    <rdf:RDF>
      <cc:Work
         rdf:about="">
        <dc:format>image/svg+xml</dc:format>
        <dc:type
           rdf:resource="http://purl.org/dc/dcmitype/StillImage" />
      </cc:Work>
    </rdf:RDF>
  </metadata>
  <g
     inkscape:label="Layer 1"
     inkscape:groupmode="layer"
     id="layer1"
     transform="translate(0,-288.53332)">
    <circle
       style="fill:#ffffff;fill-opacity:1;stroke:none;stroke-width:1.05833;stroke-linecap:round;stroke-linejoin:round;stroke-miterlimit:4;stroke-dasharray:none;stroke-dashoffset:0;stroke-opacity:1;paint-order:normal"
       id="path22154-31-0-2"
       cx="4.2343221"
       cy="292.76721"
       r="3.7041667" />
    <path
       style="font-style:normal;font-variant:normal;font-weight:normal;font-stretch:normal;font-size:4.06419px;line-height:1.25;font-family:Contemporary;-inkscape-font-specification:Contemporary;letter-spacing:0px;word-spacing:0px;fill:url(#linearGradient22086-8-4-1);fill-opacity:1;stroke:none;stroke-width:0.264583;stroke-linecap:round;stroke-linejoin:round;stroke-miterlimit:4;stroke-dasharray:none;stroke-dashoffset:0;stroke-opacity:1;paint-order:normal"
       d="m 4.1965813,288.53385 c -1.97555,-0.0199 -3.78935002,1.52211 -4.12014002,3.45922 -0.37374,1.83898 0.65586,3.84524 2.37020002,4.60211 1.73861,0.86185 4.01817,0.28978 5.16075,-1.27547 1.13762,-1.45256 1.13542,-3.6492 -2.3e-4,-5.10203 -0.78764,-1.05904 -2.09018,-1.70558 -3.41058,-1.68383 z m 0.0377,0.52917 c 1.92411,-0.0889 3.78732,1.77162 3.65429,3.58686 -1.16262,-0.30784 -2.32194,-0.6297 -3.48663,-0.92872 -0.57619,-0.1106 -1.14726,0.33919 -1.227,0.90988 -0.29337,1.0951 -0.58673,2.19021 -0.88009,3.28531 -1.53370002,-0.8933 -2.19819002,-2.9712 -1.47283002,-4.59174 0.55434002,-1.34982 1.95321002,-2.27714 3.41226002,-2.26159 z m 4.22972,3.74189 c 0.0821,0.0184 -0.0853,0.045 0,0 z"
       id="path814-6-1-4-9-4-6-0"
       inkscape:connector-curvature="0" />
    <path
       id="path934"
       style="fill:#ffffff;fill-opacity:1;stroke:none;stroke-width:0.999999;stroke-linecap:round;stroke-linejoin:round"
       d="M 23.763672 17.449219 A 3.6784044 7.3568087 60 0 0 18.142578 19.126953 A 3.6784044 7.3568087 60 0 0 13.611328 25.992188 A 3.6784044 7.3568087 60 0 0 21.820312 25.498047 A 3.6784044 7.3568087 60 0 0 26.353516 18.634766 A 3.6784044 7.3568087 60 0 0 23.763672 17.449219 z M 21.242188 20.691406 A 1.2261348 2.4522695 60 0 1 22.105469 21.087891 A 1.2261348 2.4522695 60 0 1 20.595703 23.375 A 1.2261348 2.4522695 60 0 1 17.857422 23.539062 A 1.2261348 2.4522695 60 0 1 19.369141 21.251953 A 1.2261348 2.4522695 60 0 1 21.242188 20.691406 z "
       transform="matrix(0.26458333,0,0,0.26458333,0,288.53332)" />
  </g>
</svg>
